<?xml version="1.0" standalone="no"?>
<!DOCTYPE svg PUBLIC "-//W3C//DTD SVG 20010904//EN"
 "http://www.w3.org/TR/2001/REC-SVG-20010904/DTD/svg10.dtd">
<svg version="1.0" xmlns="http://www.w3.org/2000/svg"
 width="108.000000pt" height="32.000000pt" viewBox="0 0 108.000000 32.000000"
 preserveAspectRatio="xMidYMid meet">
<metadata>
Created by potrace 1.16, written by Peter Selinger 2001-2019
</metadata>
<g transform="translate(0.000000,32.000000) scale(0.012000,-0.003540)"
fill="#000000" stroke="none">
<path d="M4152 8150 c-588 -73 -1074 -273 -1515 -622 -131 -104 -351 -324
-455 -456 -325 -409 -540 -909 -609 -1413 -25 -186 -25 -622 0 -794 124 -838
579 -1559 1282 -2026 112 -74 342 -198 465 -250 843 -353 1795 -289 2595 174
66 39 134 81 151 93 17 13 35 24 40 24 5 0 428 -419 939 -931 512 -512 957
-950 990 -974 271 -196 652 -77 776 242 31 80 38 237 14 319 -37 129 -19 109
-1027 1119 l-957 960 61 95 c223 346 376 765 434 1190 20 152 29 505 15 617
-64 519 -246 1023 -500 1383 -87 124 -292 360 -399 459 -130 120 -224 201
-235 201 -5 0 -35 20 -68 45 -167 129 -472 294 -700 378 -165 60 -401 121
-574 148 -157 24 -590 35 -723 19z m713 -289 c355 -58 721 -200 1023 -398 255
-167 511 -413 688 -664 204 -287 335 -580 424 -944 87 -359 77 -873 -25 -1261
-252 -959 -1033 -1696 -2000 -1888 -210 -41 -298 -50 -515 -50 -421 0 -781 84
-1165 274 -491 243 -904 650 -1160 1143 -201 387 -295 770 -295 1198 0 203 12
329 50 519 159 806 700 1500 1444 1850 281 133 523 200 886 244 19 2 143 3
275 1 186 -2 269 -8 370 -24z m2732 -5393 c506 -508 929 -938 938 -957 23 -45
30 -127 16 -179 -14 -50 -67 -113 -115 -136 -42 -20 -136 -21 -179 -2 -19 8
-422 405 -966 949 l-934 935 104 100 c57 55 124 125 149 156 25 30 50 55 55
56 6 0 425 -415 932 -922z"/>
<path d="M4245 7481 c-187 -34 -336 -109 -450 -226 -73 -75 -118 -148 -162
-265 -51 -138 -67 -246 -66 -455 2 -354 89 -725 248 -1050 73 -148 148 -248
280 -373 146 -138 257 -191 422 -199 170 -9 275 23 396 122 86 70 225 242 299
370 118 206 226 560 264 870 19 154 14 440 -10 545 -84 368 -334 595 -731 664
-123 22 -359 20 -490 -3z m485 -291 c191 -39 328 -136 400 -284 55 -110 65
-170 64 -376 -1 -235 -37 -442 -121 -695 -72 -220 -131 -330 -254 -480 -108
-130 -162 -159 -284 -153 -106 6 -163 36 -275 148 -107 107 -151 173 -217 326
-134 313 -201 634 -190 917 14 365 150 548 448 602 115 21 316 18 429 -5z"/>
<path d="M3520 4739 c-679 -172 -949 -243 -981 -260 -48 -24 -103 -89 -138
-164 -34 -71 -81 -216 -81 -248 0 -35 176 -306 224 -346 18 -15 20 -10 36 131
20 174 75 362 108 372 79 24 875 226 890 226 5 0 33 -84 62 -187 193 -687 356
-955 609 -1003 70 -13 422 -13 492 0 158 30 301 164 413 387 76 153 168 414
237 676 33 124 35 128 59 124 14 -2 214 -52 445 -111 290 -74 424 -112 433
-124 25 -34 92 -306 92 -377 0 -14 3 -25 8 -25 11 0 128 180 178 274 l44 83
-19 54 c-46 135 -124 240 -196 267 -49 18 -289 80 -914 237 -226 57 -306 73
-311 64 -5 -6 -13 -39 -20 -73 -46 -241 -184 -699 -262 -869 -79 -173 -160
-278 -228 -297 -56 -16 -384 -13 -423 4 -47 19 -109 95 -156 189 -79 159 -142
352 -261 797 -69 257 -70 260 -88 259 -9 0 -123 -28 -252 -60z"/>
<path d="M4371 4722 c-50 -27 -71 -73 -71 -155 0 -76 17 -127 50 -150 l23 -16
-27 -318 c-14 -175 -26 -335 -26 -355 l0 -38 175 0 c160 0 175 1 175 18 0 9
-13 168 -29 352 l-29 335 29 31 c37 39 46 71 43 162 -4 123 -41 152 -191 152
-66 0 -97 -5 -122 -18z"/>
<path d="M1725 7273 c-85 -12 -200 -48 -280 -87 -168 -83 -280 -230 -336 -441
-27 -104 -37 -342 -20 -481 38 -305 144 -635 269 -834 l47 -75 7 121 c5 102
42 366 53 384 2 3 -10 51 -26 105 -88 297 -96 634 -18 799 69 147 228 226 457
226 55 0 58 2 82 37 14 21 58 80 98 131 40 52 72 95 70 97 -22 19 -305 31
-403 18z"/>
<path d="M6885 7253 c-16 -2 -45 -6 -63 -9 l-34 -5 44 -48 c24 -26 68 -81 98
-124 l55 -76 50 -1 c266 -2 446 -122 507 -335 44 -159 23 -456 -52 -716 -28
-97 -28 -100 -15 -191 22 -154 35 -283 35 -358 l0 -72 36 43 c49 59 144 260
189 398 69 218 114 475 115 658 1 395 -148 644 -459 771 -136 56 -354 84 -506
65z"/>
<path d="M7631 4761 c-145 -602 -297 -921 -440 -921 -35 0 -38 -2 -94 -102
l-59 -101 114 -114 113 -115 155 6 c607 25 1225 132 1508 262 l72 33 -5 78
c-2 43 -7 126 -10 185 -10 198 -53 404 -110 534 -25 57 -85 128 -124 149 -24
12 -616 168 -1002 263 l-76 19 -42 -176z m702 -287 c306 -78 281 -62 316 -200
22 -89 38 -205 43 -309 l3 -69 -45 -13 c-278 -83 -592 -133 -1060 -169 l-85
-6 26 28 c64 71 128 188 186 338 31 83 143 439 143 457 0 4 4 19 9 32 l10 25
93 -23 c51 -12 214 -53 361 -91z"/>
<path d="M790 4796 c-289 -73 -534 -137 -546 -143 -61 -34 -131 -147 -167
-274 -25 -84 -56 -289 -62 -407 -3 -59 -8 -142 -10 -185 l-5 -78 74 -34 c333
-151 1093 -264 1790 -265 174 0 178 0 165 19 -8 11 -42 58 -77 106 -34 48 -92
135 -127 193 -35 59 -87 131 -114 159 -100 104 -217 411 -326 853 -23 92 -55
190 -63 189 -4 0 -243 -60 -532 -133z m344 -218 c2 -7 21 -76 41 -153 78 -287
184 -551 269 -669 19 -28 34 -51 32 -53 -4 -5 -320 24 -474 43 -159 19 -457
76 -592 112 l-105 29 2 104 c1 57 7 136 14 174 14 84 56 222 70 231 9 5 711
191 732 193 4 1 9 -5 11 -11z"/>
<path d="M5087 2289 c-135 -28 -292 -50 -407 -56 -88 -4 -111 -9 -142 -29 -45
-29 -43 -29 -76 -5 -22 15 -54 19 -166 25 -152 7 -248 18 -369 42 -43 9 -80
14 -82 12 -3 -3 592 -421 640 -450 7 -5 47 16 96 51 46 32 205 142 353 244
148 103 262 186 255 186 -8 -1 -53 -10 -102 -20z"/>
</g>
</svg>
